<svg width="200" height="200" viewBox="0 0 200 200" fill="none" xmlns="http://www.w3.org/2000/svg">
<rect width="200" height="200" fill="white"/>
<path d="M90.352 33.3145C96.6275 25.8725 107.682 27.0093 107.747 35.1033L108.235 95.0976C108.286 101.397 101.286 107.549 94.7119 107.086L94.3993 107.059L47.3975 102.225L47.0885 102.189C40.6783 101.317 38.9532 94.2679 43.8375 88.4756L90.352 33.3145ZM59.9704 88.9313L93.0267 92.3305L92.684 50.1365L59.9704 88.9313Z" fill="#3C36A8"/>
<path d="M110.263 166.685C103.988 174.127 92.9335 172.991 92.8677 164.897L92.3803 104.902C92.3291 98.6026 99.3294 92.4512 105.903 92.914L106.216 92.9414L153.218 97.7746L153.527 97.8111C159.937 98.6834 161.662 105.732 156.778 111.524L110.263 166.685ZM140.645 111.069L107.588 107.669L107.931 149.863L140.645 111.069Z" fill="#5AAEFF"/>
<path d="M127 100.5C127 115.688 114.688 128 99.5 128C84.3122 128 72 115.688 72 100.5C72 85.3122 84.3122 73 99.5 73C114.688 73 127 85.3122 127 100.5Z" fill="white"/>
<path d="M86.033 101.799C84.8563 103.321 82.6685 103.601 81.1465 102.425L80.7559 102.123C79.2339 100.946 78.9539 98.7582 80.1306 97.2362L89.0061 85.7559C90.1828 84.2339 92.3706 83.9539 93.8926 85.1306L94.2832 85.4325C95.8052 86.6092 96.0852 88.797 94.9085 90.3191L86.033 101.799Z" fill="#5AAEFF"/>
<path d="M86.033 97.4618C84.8563 95.9397 82.6685 95.6598 81.1465 96.8365L80.7559 97.1384C79.2339 98.3151 78.9539 100.503 80.1306 102.025L89.0061 113.505C90.1828 115.027 92.3706 115.307 93.8926 114.131L94.2832 113.829C95.8052 112.652 96.0852 110.464 94.9085 108.942L86.033 97.4618Z" fill="#5AAEFF"/>
<path d="M113.006 101.799C114.183 103.321 116.371 103.601 117.893 102.425L118.283 102.123C119.805 100.946 120.085 98.7582 118.908 97.2362L110.033 85.7559C108.856 84.2339 106.668 83.9539 105.146 85.1306L104.756 85.4325C103.234 86.6092 102.954 88.797 104.131 90.3191L113.006 101.799Z" fill="#3C36A8"/>
<path d="M113.006 97.4618C114.183 95.9397 116.371 95.6598 117.893 96.8365L118.283 97.1384C119.805 98.3151 120.085 100.503 118.908 102.025L110.033 113.505C108.856 115.027 106.668 115.307 105.146 114.131L104.756 113.829C103.234 112.652 102.954 110.464 104.131 108.942L113.006 97.4618Z" fill="#3C36A8"/>
</svg>
