<svg width="160" height="160" viewBox="0 0 160 160" fill="none" xmlns="http://www.w3.org/2000/svg">
<circle cx="80" cy="80" r="78" fill="#5AAEFF" stroke="#3C36A8" stroke-width="4"/>
<path d="M70.352 13.3145C76.6274 5.87254 87.6816 7.00928 87.7474 15.1033L88.2348 75.0976C88.2859 81.3974 81.2857 87.5488 74.7119 87.086L74.3993 87.0586L27.3975 82.2254L27.0885 82.1889C20.6783 81.3166 18.9532 74.2679 23.8375 68.4756L70.352 13.3145ZM39.9704 68.9313L73.0267 72.3305L72.684 30.1365L39.9704 68.9313Z" fill="#3C36A8"/>
<path d="M90.2631 146.685C83.9876 154.127 72.9335 152.991 72.8677 144.897L72.3803 84.9024C72.3291 78.6026 79.3294 72.4512 85.9032 72.914L86.2158 72.9414L133.218 77.7746L133.527 77.8111C139.937 78.6834 141.662 85.7321 136.778 91.5244L90.2631 146.685ZM120.645 91.0687L87.5884 87.6695L87.9311 129.863L120.645 91.0687Z" fill="white"/>
<path d="M107 79.5C107 94.6878 94.6878 107 79.5 107C64.3122 107 52 94.6878 52 79.5C52 64.3122 64.3122 52 79.5 52C94.6878 52 107 64.3122 107 79.5Z" fill="#5AAEFF"/>
<path d="M66.6488 81.9004C65.5284 83.3496 63.4453 83.6162 61.996 82.4958L61.6241 82.2083C60.1749 81.0878 59.9083 79.0047 61.0287 77.5554L69.4798 66.6241C70.6002 65.1749 72.6834 64.9083 74.1326 66.0287L74.5045 66.3162C75.9538 67.4367 76.2203 69.5198 75.0999 70.9691L66.6488 81.9004Z" fill="white"/>
<path d="M66.6488 77.7702C65.5284 76.3209 63.4453 76.0544 61.996 77.1748L61.6241 77.4623C60.1749 78.5827 59.9083 80.6659 61.0287 82.1152L69.4798 93.0464C70.6002 94.4957 72.6834 94.7623 74.1326 93.6418L74.5045 93.3544C75.9538 92.2339 76.2203 90.1508 75.0999 88.7015L66.6488 77.7702Z" fill="white"/>
<path d="M93.4798 81.9004C94.6002 83.3496 96.6834 83.6162 98.1326 82.4958L98.5045 82.2083C99.9538 81.0878 100.22 79.0047 99.0999 77.5554L90.6489 66.6241C89.5284 65.1749 87.4453 64.9083 85.996 66.0287L85.6241 66.3162C84.1749 67.4367 83.9083 69.5198 85.0287 70.9691L93.4798 81.9004Z" fill="#3C36A8"/>
<path d="M93.4798 77.7702C94.6002 76.3209 96.6834 76.0544 98.1326 77.1748L98.5045 77.4623C99.9538 78.5827 100.22 80.6659 99.0999 82.1152L90.6489 93.0464C89.5284 94.4957 87.4453 94.7623 85.996 93.6418L85.6241 93.3544C84.1749 92.2339 83.9083 90.1508 85.0287 88.7015L93.4798 77.7702Z" fill="#3C36A8"/>
</svg>
